<svg width="16" height="17" viewBox="0 0 16 17" fill="none" xmlns="http://www.w3.org/2000/svg">
<path fill-rule="evenodd" clip-rule="evenodd" d="M7.97841 0.974609C3.61332 0.974609 0.101562 4.56193 0.101562 9.02094C0.101562 12.5747 2.36616 15.5921 5.48408 16.665C5.87792 16.732 6.0092 16.4973 6.0092 16.2626C6.0092 16.0615 6.0092 15.5586 6.0092 14.8881C3.81025 15.391 3.35076 13.8152 3.35076 13.8152C2.98974 12.8765 2.46462 12.6418 2.46462 12.6418C1.74257 12.1389 2.53026 12.1389 2.53026 12.1389C3.31794 12.2059 3.7446 12.9771 3.7446 12.9771C4.43383 14.2175 5.58254 13.8487 6.04202 13.6476C6.10766 13.1112 6.30458 12.7759 6.53432 12.5747C4.79485 12.3736 2.95692 11.6695 2.95692 8.5851C2.95692 7.71341 3.2523 6.97583 3.77743 6.43941C3.71178 6.23825 3.4164 5.43362 3.84307 4.29372C3.84307 4.29372 4.49947 4.09256 6.0092 5.13188C6.63278 4.96425 7.32201 4.86367 7.97841 4.86367C8.63482 4.86367 9.32404 4.96425 9.94762 5.13188C11.4574 4.09256 12.1138 4.29372 12.1138 4.29372C12.5404 5.40009 12.2779 6.20473 12.1794 6.43941C12.6717 7.00936 12.9999 7.71341 12.9999 8.5851C12.9999 11.6695 11.162 12.3401 9.38968 12.5412C9.68506 12.7759 9.9148 13.2788 9.9148 14.0164C9.9148 15.0892 9.9148 15.9609 9.9148 16.2291C9.9148 16.4303 10.0461 16.6985 10.4727 16.6314C13.5907 15.5921 15.8553 12.5747 15.8553 9.02094C15.8553 4.56193 12.3435 0.974609 7.97841 0.974609Z" fill="white"/>
</svg>
