<svg width="17" height="18" viewBox="0 0 17 18" fill="none" xmlns="http://www.w3.org/2000/svg">
<path d="M8.5085 2.49033C10.7073 2.49033 10.9676 2.49874 11.8362 2.5392C12.3585 2.54573 12.8758 2.64368 13.3656 2.8288C13.7208 2.96874 14.0434 3.1831 14.3126 3.45808C14.5819 3.73307 14.7917 4.06259 14.9287 4.42544C15.1099 4.92578 15.2058 5.45417 15.2122 5.98762C15.2514 6.87487 15.2601 7.14084 15.2601 9.38678C15.2601 11.6327 15.2518 11.8987 15.2122 12.7859C15.2058 13.3194 15.1099 13.8478 14.9287 14.3481C14.7917 14.711 14.5819 15.0405 14.3126 15.3155C14.0434 15.5905 13.7208 15.8048 13.3656 15.9448C12.8758 16.1299 12.3585 16.2278 11.8362 16.2344C10.968 16.2744 10.7076 16.2832 8.5085 16.2832C6.30934 16.2832 6.04896 16.2748 5.18075 16.2344C4.6585 16.2278 4.14121 16.1299 3.65138 15.9448C3.29616 15.8048 2.97356 15.5905 2.70435 15.3155C2.43514 15.0405 2.22528 14.711 2.08829 14.3481C1.90705 13.8478 1.81116 13.3194 1.80477 12.7859C1.76555 11.8987 1.75692 11.6327 1.75692 9.38678C1.75692 7.14084 1.76516 6.87487 1.80477 5.98762C1.81116 5.45417 1.90705 4.92578 2.08829 4.42544C2.22528 4.06259 2.43514 3.73307 2.70435 3.45808C2.97356 3.1831 3.29616 2.96874 3.65138 2.8288C4.14121 2.64368 4.6585 2.54573 5.18075 2.5392C6.04935 2.49914 6.30973 2.49033 8.5085 2.49033ZM8.5085 0.974609C6.27327 0.974609 5.9917 0.984223 5.1133 1.02508C4.42981 1.03897 3.75357 1.17116 3.11336 1.41603C2.56415 1.62739 2.06672 1.95861 1.65575 2.38659C1.23639 2.80652 0.911848 3.31492 0.704798 3.87627C0.465071 4.53022 0.335658 5.22097 0.322064 5.91913C0.282849 6.81558 0.273438 7.10318 0.273438 9.38638C0.273438 11.6696 0.282849 11.9572 0.322848 12.8544C0.336443 13.5526 0.465856 14.2433 0.705582 14.8973C0.912403 15.4586 1.23667 15.967 1.65575 16.387C2.06694 16.815 2.56466 17.1463 3.11414 17.3575C3.75436 17.6024 4.43059 17.7346 5.11408 17.7485C5.99249 17.7885 6.27287 17.799 8.50928 17.799C10.7457 17.799 11.0261 17.7893 11.9045 17.7485C12.588 17.7346 13.2642 17.6024 13.9044 17.3575C14.4513 17.141 14.9479 16.8103 15.3625 16.3865C15.7771 15.9627 16.1006 15.4552 16.3122 14.8965C16.5519 14.2425 16.6813 13.5518 16.6949 12.8536C16.7341 11.9572 16.7436 11.6696 16.7436 9.38638C16.7436 7.10318 16.7341 6.81558 16.6941 5.91833C16.6805 5.22017 16.5511 4.52942 16.3114 3.87547C16.1046 3.31419 15.7803 2.8058 15.3612 2.38578C14.95 1.95771 14.4523 1.62648 13.9029 1.41523C13.2626 1.17036 12.5864 1.03817 11.9029 1.02428C11.0253 0.984223 10.7437 0.974609 8.5085 0.974609Z" fill="white"/>
<path d="M8.5021 5.07324C7.66575 5.07324 6.84818 5.32659 6.15278 5.80123C5.45738 6.27588 4.91538 6.95052 4.59533 7.73983C4.27527 8.52914 4.19153 9.39768 4.35469 10.2356C4.51786 11.0735 4.9206 11.8432 5.51199 12.4473C6.10337 13.0515 6.85685 13.4629 7.67713 13.6295C8.49741 13.7962 9.34765 13.7107 10.1203 13.3837C10.893 13.0568 11.5534 12.5031 12.0181 11.7928C12.4828 11.0824 12.7308 10.2472 12.7308 9.39289C12.7308 8.24725 12.2852 7.14853 11.4922 6.33844C10.6992 5.52835 9.62361 5.07324 8.5021 5.07324ZM8.5021 12.1968C7.95922 12.1968 7.42852 12.0324 6.97713 11.7243C6.52574 11.4162 6.17393 10.9783 5.96617 10.4659C5.75842 9.95355 5.70407 9.38978 5.80998 8.84587C5.91589 8.30196 6.17731 7.80235 6.56119 7.41021C6.94506 7.01808 7.43415 6.75103 7.9666 6.64284C8.49905 6.53465 9.05095 6.59018 9.55251 6.8024C10.0541 7.01462 10.4828 7.37401 10.7844 7.83511C11.086 8.29621 11.247 8.83832 11.247 9.39289C11.247 10.1365 10.9578 10.8497 10.443 11.3756C9.92825 11.9014 9.23008 12.1968 8.5021 12.1968Z" fill="white"/>
<path d="M12.9022 5.90115C13.448 5.90115 13.8904 5.44922 13.8904 4.89174C13.8904 4.33425 13.448 3.88232 12.9022 3.88232C12.3565 3.88232 11.9141 4.33425 11.9141 4.89174C11.9141 5.44922 12.3565 5.90115 12.9022 5.90115Z" fill="white"/>
</svg>
