<svg width="17" height="17" viewBox="0 0 17 17" fill="none" xmlns="http://www.w3.org/2000/svg">
<path d="M8.81296 3.04004C9.17021 3.04201 10.064 3.05065 11.0137 3.08869L11.3504 3.10337C12.3066 3.14864 13.262 3.22598 13.7358 3.3581C14.3679 3.53565 14.8647 4.05374 15.0325 4.71047C15.2999 5.75332 15.3333 7.78874 15.3375 8.28131L15.3381 8.38338V8.39054C15.3381 8.39054 15.3381 8.39301 15.3381 8.39776L15.3375 8.49984C15.3333 8.9924 15.2999 11.0278 15.0325 12.0707C14.8623 12.7298 14.3655 13.2479 13.7358 13.423C13.262 13.5552 12.3066 13.6325 11.3504 13.6778L11.0137 13.6924C10.064 13.7305 9.17021 13.7391 8.81296 13.7411L8.65617 13.7416H8.64921C8.64921 13.7416 8.64687 13.7416 8.64226 13.7416L8.4856 13.7411C7.72949 13.737 4.56807 13.7028 3.5626 13.423C2.93056 13.2455 2.43379 12.7274 2.26586 12.0707C1.99853 11.0278 1.96511 8.9924 1.96094 8.49984V8.28131C1.96511 7.78874 1.99853 5.75332 2.26586 4.71047C2.43612 4.0513 2.93288 3.53322 3.5626 3.3581C4.56807 3.07832 7.72949 3.0442 8.4856 3.04004H8.81296ZM7.31144 6.04946V10.7316L11.3248 8.39054L7.31144 6.04946Z" fill="white"/>
</svg>
